# xmcd CD database file
#
# Track frame offsets:
#	150
#	16763
#	36726
#	66138
#	85771
#	102727
#	123034
#	154313
#	170240
#	192177
#	214432
#	231478
#	250785
#	274148
#	294876
#
# Disc length: 4278 seconds
#
# Revision: 1
# Processed by: cddbd v1.5.2PL0 Copyright (c) Steve Scherf et al.
# Submitted via: CDex 1.70beta2
#
DISCID=df10b40f
DTITLE=YURI BUENAVENTURA - Salsa Fever  cd1
DYEAR=2012
DGENRE=Salsa
TTITLE0=01 Romper la Cadena
TTITLE1=02 La Rebelión
TTITLE2=03 Oye lo Que Te Convienne
TTITLE3=04 Digame Senora
TTITLE4=05 Oye Como Va (Bongo Edit)
TTITLE5=06 Viernes Social
TTITLE6=07  Puerto Rico
TTITLE7=08  QUIMBARA
TTITLE8=09 EL PRESO
TTITLE9=10 Me Mantengo
TTITLE10=11 Nunca contigo
TTITLE11=12 Canto a mi tierra
TTITLE12=13 En barranquilla Me Quedo
TTITLE13=14 Que duro Me pego tu Amor
TTITLE14=15 El Sol de Buscaja
EXTD=YEAR: 2012
EXTT0=
EXTT1=
EXTT2=
EXTT3=
EXTT4=
EXTT5=
EXTT6=
EXTT7=
EXTT8=
EXTT9=
EXTT10=
EXTT11=
EXTT12=
EXTT13=
EXTT14=
PLAYORDER=
